<svg width="60" height="60" viewBox="0 0 60 60" fill="none" xmlns="http://www.w3.org/2000/svg">
<g clip-path="url(#clip0_2365_3669)">
<path d="M36.1326 23.6754C38.2291 25.7754 42.1876 25.2049 44.9806 22.4084C47.7736 19.6119 48.3406 15.6464 46.2476 13.5499C44.1511 11.4499 40.1926 12.0169 37.3996 14.8134C34.6066 17.6134 34.0396 21.5789 36.1326 23.6754Z" fill="#008000"/>
<path d="M57.3382 13.5918C56.0677 18.9608 52.6692 26.2828 44.5982 35.3548L43.7582 43.7828C43.5345 45.8021 42.6311 47.6854 41.1963 49.1238L32.8593 57.4748C32.5945 57.7425 32.2519 57.9196 31.8805 57.9808C31.5091 58.042 31.1278 57.9843 30.7911 57.8158C30.4545 57.6472 30.1798 57.3766 30.0062 57.0426C29.8326 56.7085 29.7691 56.3281 29.8248 55.9558L30.7698 49.3093C30.9097 48.3293 30.7242 47.2338 30.3112 45.9633C30.0494 45.1862 29.7587 44.4192 29.4398 43.6638L29.1528 42.9568C26.3003 42.2673 23.6298 40.6398 21.4843 38.4873C19.3353 36.3348 17.7078 33.6608 17.0218 30.8048L16.3113 30.5143C15.558 30.1971 14.7933 29.9075 14.0188 29.6463C12.7483 29.2298 11.6563 29.0443 10.6763 29.1843L4.04025 30.1293C3.66823 30.184 3.28843 30.1198 2.95504 29.9459C2.62165 29.772 2.35169 29.4972 2.18369 29.1608C2.01568 28.8244 1.9582 28.4436 2.01944 28.0726C2.08069 27.7015 2.25754 27.3594 2.52475 27.0948L10.8618 18.7438C12.2968 17.3088 14.1763 16.3988 16.1958 16.1748H16.2168L24.6168 15.3418C33.5173 7.42481 40.8043 4.03681 46.1803 2.72781C49.2952 1.96831 51.7452 1.91581 53.4602 2.06981C54.3142 2.15031 54.9827 2.27981 55.4552 2.39531C55.6897 2.45481 55.8752 2.51081 56.0152 2.55281C56.6592 2.76281 56.9917 3.00781 57.2437 3.58531L57.3452 3.84081C57.6175 4.66009 57.8017 5.50602 57.8948 6.36431C58.0872 8.06181 58.0732 10.4873 57.3382 13.5918ZM40.4403 39.7543L40.5802 39.6143L40.2057 43.3978C40.0687 44.6065 39.5258 45.7331 38.6657 46.5933L34.1227 51.1433L34.3118 49.8133C34.5638 48.0423 34.1927 46.3378 33.7098 44.8503C33.5332 44.32 33.3418 43.7948 33.1357 43.2753C35.7188 43.0478 38.2528 41.9453 40.4403 39.7543ZM20.2173 19.4998C18.0298 21.6908 16.9273 24.2283 16.7033 26.8148C16.1838 26.6087 15.6585 26.4173 15.1283 26.2408C13.6443 25.7578 11.9433 25.3868 10.1723 25.6388L8.84225 25.8278L13.3923 21.2778C14.2498 20.4168 15.3733 19.8743 16.5773 19.7378L20.3573 19.3633L20.2173 19.4998ZM53.1382 5.63631C51.8082 5.51731 49.7537 5.54181 47.0272 6.20681C41.5742 7.53681 33.3177 11.4428 22.7478 22.0303C20.5778 24.2003 19.9513 26.7203 20.3433 29.2088C20.7178 31.5748 22.0338 33.9758 24.0113 35.9568C25.9853 37.9343 28.3862 39.2503 30.7453 39.6283C33.2302 40.0203 35.7467 39.3938 37.9132 37.2203C48.6897 26.4298 52.5853 18.1663 53.8593 12.7658C54.4998 10.0673 54.4893 8.05831 54.3423 6.77031C54.3065 6.4377 54.2539 6.10711 54.1847 5.77981C53.8373 5.71478 53.4869 5.66688 53.1348 5.63631H53.1382Z" fill="#008000"/>
<path d="M26.5315 44.4863C24.2042 43.2302 22.0763 41.6355 20.2175 39.7543C18.2247 37.7817 16.5578 35.5052 15.279 33.0098C11.422 36.4818 8.40148 50.6988 8.84248 51.1398C9.27998 51.5808 22.6185 48.0038 26.5315 44.4828V44.4863Z" fill="#008000"/>
</g>
<defs>
<clipPath id="clip0_2365_3669">
<rect width="56" height="56" fill="white" transform="translate(2 2)"/>
</clipPath>
</defs>
</svg>
